<mxfile host="app.diagrams.net" modified="2023-05-15T06:08:10.020Z" agent="Mozilla/5.0 (Windows NT 10.0; Win64; x64) AppleWebKit/537.36 (KHTML, like Gecko) Chrome/113.0.0.0 Safari/537.36" version="21.3.0" etag="MQr6dhxv4fZKr_E_-TGT" type="github">
  <diagram name="페이지-1" id="L-ZGda0Lm1905HTpbSfC">
    <mxGraphModel>
      <root>
        <mxCell id="0" />
        <mxCell id="1" parent="0" />
      </root>
    </mxGraphModel>
  </diagram>
</mxfile>
